<svg width="339" height="183" viewBox="0 0 339 183" xmlns="http://www.w3.org/2000/svg">
<path d="M158.801 135.851C142.169 150.457 71.7027 175.994 75.5193 160.922L75.7699 160.546C79.6987 153.248 87.1073 142.658 93.3934 135.622C99.6795 128.437 106.34 121.925 113.374 116.087C120.409 110.249 126.545 106.133 131.783 103.737C136.423 101.492 139.866 98.9472 142.111 96.1031C144.505 93.2589 145.703 89.4417 145.703 84.6515C145.703 80.3104 144.879 77.092 143.233 74.9963C141.736 72.9006 139.791 71.8528 137.396 71.8528C135.899 71.8528 134.028 72.1522 131.783 72.7509C129.688 73.3497 128.266 73.7239 127.518 73.8736C123.327 75.0712 120.483 75.6699 118.987 75.6699C114.347 75.6699 109.258 75.4454 103.721 74.9963C98.3325 74.5472 94.8152 74.2478 93.1689 74.0981C83.4404 73.0503 75.2834 72.5264 68.698 72.5264C65.7046 72.5264 63.3099 73.9485 61.5139 76.7926C59.8676 79.4871 59.0444 82.6307 59.0444 86.2233C59.0444 89.6663 59.8676 92.6601 61.5139 95.2049C63.3099 97.6 65.8543 98.7227 69.147 98.573L100.802 97.6748C92.2709 103.213 84.0391 110.099 76.1066 118.333C68.1742 126.566 61.7384 135.098 56.7993 143.93C51.8603 152.612 49.3907 160.396 49.3907 167.282C49.3907 177.461 53.2447 182.439 61.1771 182.439C70.3277 182.439 89.2942 181.544 99.6935 180.709C122.312 178.894 145.892 173.713 158.506 168.868C167.7 165.336 176 161.226 183.408 156.538C183.947 163.803 184.985 169.477 186.522 173.561C189.047 179.854 193.309 183 199.307 183C204.2 183 207.752 181.741 209.962 179.224C212.329 176.55 214.381 171.516 216.118 164.121C218.17 155.626 220.853 146.974 224.168 138.164C227.64 129.354 231.192 122.117 234.822 116.453C238.453 110.79 241.452 107.958 243.819 107.958C245.556 107.958 246.424 109.216 246.424 111.734C246.424 114.88 245.793 121.488 244.53 131.556C242.951 142.883 242.162 151.536 242.162 157.514C242.162 164.593 243.425 170.65 245.95 175.685C248.634 180.562 252.58 183 257.789 183C262.84 183 266.47 181.741 268.68 179.224C271.048 176.707 273.1 171.673 274.836 164.121C277.204 154.525 280.282 145.4 284.07 136.748C287.858 128.095 291.646 121.173 295.435 115.981C299.223 110.632 302.143 107.958 304.195 107.958C305.931 107.958 306.8 109.216 306.8 111.734C306.8 115.195 305.853 123.218 303.958 135.804C301.749 150.277 300.644 160.66 300.644 166.953C300.644 172.302 301.827 176.314 304.195 178.988C306.563 181.663 310.351 183 315.56 183C321.085 183 325.031 181.741 327.398 179.224C329.924 176.55 331.187 172.224 331.187 166.245C331.187 155.705 331.66 146.187 332.607 137.692C333.554 129.039 334.817 119.914 336.396 110.318C338.132 98.9906 339 91.2819 339 87.1915C339 82.1573 337.658 78.3816 334.975 75.8644C332.449 73.19 328.661 71.8528 323.61 71.8528C318.401 71.8528 312.719 73.6619 306.563 77.2803C300.407 80.7414 294.093 86.6409 287.621 94.9789C281.308 103.317 275.546 114.093 270.337 127.308C270.811 124.477 271.679 120.229 272.942 114.565C275.941 101.35 277.44 92.2258 277.44 87.1915C277.44 81.9999 276.257 78.1456 273.889 75.6285C271.679 73.1113 267.812 71.8528 262.287 71.8528C256.763 71.8528 250.844 73.9766 244.53 78.2243C238.374 82.3146 232.297 88.6074 226.299 97.1028C226.101 97.3899 225.905 97.6791 225.709 97.9705C227.15 91.2248 227.871 84.154 227.871 76.758C227.871 60.4952 223.148 46.6156 213.703 35.1194C204.257 23.6232 190.778 14.931 173.264 9.04272C155.751 3.01424 134.991 0 110.984 0C94.0607 0 76.4489 1.75246 58.1484 5.25739C39.8479 8.62213 23.9087 13.5991 10.3309 20.1884C6.59212 22.011 3.93559 24.0438 2.36136 26.287C0.787119 28.39 0 31.1238 0 34.4885C0 37.4327 0.983899 39.9562 2.9517 42.0592C4.91949 44.022 7.57601 45.0033 10.9213 45.0033C13.873 45.0033 16.6279 44.3725 19.186 43.1107C31.5831 37.3626 45.4561 32.7361 60.8049 29.2311C76.3505 25.7262 91.9945 23.9737 107.737 23.9737C132.138 23.9737 151.028 28.5301 164.409 37.643C177.79 46.7558 184.481 59.654 184.481 76.3374C184.481 101.152 175.921 120.99 158.801 135.851Z" />
</svg>
