<svg width="500" height="500" viewBox="0 0 500 500" fill="none" xmlns="http://www.w3.org/2000/svg">
<path fill-rule="evenodd" clip-rule="evenodd" d="M248.75 18.2277L41.25 134.184V365.816L248.75 481.772L456.25 365.816V134.184L248.75 18.2277ZM461.25 131.25L248.75 12.5L36.25 131.25V368.75L248.75 487.5L461.25 368.75V131.25Z" fill="#016466"/>
<path fill-rule="evenodd" clip-rule="evenodd" d="M353.878 97.0558L248.207 37.5L248.209 37.8799L61.25 143.956V194.935L248.537 89.6956V89.4102C267.732 100.002 277.736 105.403 286.367 110.029L247.2 132.107L247.045 132.02L200.08 158.669L62.1712 236.407V236.92L61.5867 237.252L61.25 237.062L61.6076 356.172L85.7127 369.811L106.031 357.783L106.032 357.589L353.879 216.187V164.932L106.721 305.456C106.903 295.846 107.08 284.687 107.216 263.164L107.47 263.306L235.866 190.109L333.038 135.38L333.211 135.475L354.007 124.253L353.878 97.0558Z" fill="#016466"/>
<path fill-rule="evenodd" clip-rule="evenodd" d="M435.75 145.033L390.47 119.641V237.477L120.25 390.53L131.25 396.527C131.25 396.527 248.841 462.5 248.75 462.5C248.659 462.5 348.75 405.349 348.75 405.349L436.25 355.869L435.75 145.033ZM211.474 389.378L248.644 410.326L390.47 329.834V284.828L389.982 288.771L211.474 389.378Z" fill="#5E7AB8"/>
</svg>
